<svg xmlns="http://www.w3.org/2000/svg" xmlns:xlink="http://www.w3.org/1999/xlink" width="500" zoomAndPan="magnify" viewBox="0 0 375 374.999991" height="500" preserveAspectRatio="xMidYMid meet" version="1.0"><defs><g/><clipPath id="bea96abfe9"><path d="M 206 158 L 327.523438 158 L 327.523438 207 L 206 207 Z M 206 158 " clip-rule="nonzero"/></clipPath><clipPath id="1cdd264837"><path d="M 178 174 L 228 174 L 228 296.125 L 178 296.125 Z M 178 174 " clip-rule="nonzero"/></clipPath><clipPath id="980da7562f"><path d="M 61.273438 105 L 183 105 L 183 153 L 61.273438 153 Z M 61.273438 105 " clip-rule="nonzero"/></clipPath><clipPath id="2e34e0d078"><path d="M 161 15.625 L 211 15.625 L 211 138 L 161 138 Z M 161 15.625 " clip-rule="nonzero"/></clipPath></defs><rect x="-37.5" width="450" fill="#ffffff" y="-37.499999" height="449.999989" fill-opacity="1"/><rect x="-37.5" width="450" fill="#082244" y="-37.499999" height="449.999989" fill-opacity="1"/><g clip-path="url(#bea96abfe9)"><path fill="#ed166d" d="M 327.3125 206.269531 C 327.3125 206.269531 279.835938 139.695312 214.042969 164.304688 C 209.011719 166.1875 205.957031 171.300781 206.734375 176.617188 C 207.714844 183.296875 214.28125 187.675781 220.820312 185.96875 C 240.386719 180.867188 281.417969 176.136719 327.3125 206.269531 " fill-opacity="1" fill-rule="nonzero"/></g><path fill="#51ade5" d="M 303 126.769531 C 306.648438 137.90625 300.570312 149.894531 289.429688 153.539062 C 278.285156 157.1875 266.292969 151.113281 262.644531 139.976562 C 258.996094 128.835938 265.074219 116.851562 276.214844 113.203125 C 287.359375 109.558594 299.351562 115.632812 303 126.769531 " fill-opacity="1" fill-rule="nonzero"/><g clip-path="url(#1cdd264837)"><path fill="#7b167d" d="M 217.191406 296.125 C 217.191406 296.125 251.132812 221.738281 196.917969 177.09375 C 192.769531 173.679688 186.808594 173.589844 182.597656 176.921875 C 177.296875 181.113281 176.789062 188.984375 181.535156 193.792969 C 195.738281 208.179688 220.351562 241.332031 217.191406 296.125 " fill-opacity="1" fill-rule="nonzero"/></g><path fill="#ed166d" d="M 273.917969 235.328125 C 266.09375 244.054688 252.667969 244.789062 243.9375 236.964844 C 235.203125 229.140625 234.472656 215.726562 242.300781 206.996094 C 250.125 198.273438 263.546875 197.535156 272.277344 205.359375 C 281.011719 213.183594 281.742188 226.597656 273.917969 235.328125 " fill-opacity="1" fill-rule="nonzero"/><path fill="#80cc28" d="M 84.277344 245.726562 C 84.277344 245.726562 165.703125 237.917969 177.273438 168.664062 C 178.160156 163.367188 175.257812 158.164062 170.261719 156.179688 C 163.976562 153.6875 156.90625 157.1875 155.113281 163.699219 C 149.75 183.183594 133.335938 221.070312 84.277344 245.726562 " fill-opacity="1" fill-rule="nonzero"/><path fill="#7b167d" d="M 165.320312 264.429688 C 153.84375 262.023438 146.496094 250.769531 148.910156 239.296875 C 151.320312 227.832031 162.578125 220.488281 174.054688 222.898438 C 185.527344 225.308594 192.875 236.5625 190.464844 248.03125 C 188.050781 259.5 176.792969 266.839844 165.320312 264.429688 " fill-opacity="1" fill-rule="nonzero"/><g clip-path="url(#980da7562f)"><path fill="#f68c11" d="M 61.488281 105.476562 C 61.488281 105.476562 108.964844 172.054688 174.757812 147.445312 C 179.789062 145.5625 182.84375 140.445312 182.066406 135.132812 C 181.082031 128.449219 174.519531 124.074219 167.980469 125.78125 C 148.414062 130.878906 107.382812 135.613281 61.488281 105.476562 " fill-opacity="1" fill-rule="nonzero"/></g><path fill="#80cc28" d="M 85.800781 184.980469 C 82.152344 173.84375 88.226562 161.855469 99.371094 158.210938 C 110.515625 154.5625 122.507812 160.636719 126.15625 171.773438 C 129.800781 182.914062 123.726562 194.898438 112.582031 198.542969 C 101.441406 202.191406 89.449219 196.117188 85.800781 184.980469 " fill-opacity="1" fill-rule="nonzero"/><path fill="#f68c11" d="M 114.882812 76.421875 C 122.707031 67.695312 136.132812 66.960938 144.863281 74.785156 C 153.59375 82.605469 154.328125 96.023438 146.5 104.75 C 138.675781 113.476562 125.253906 114.210938 116.523438 106.390625 C 107.789062 98.566406 107.058594 85.152344 114.882812 76.421875 " fill-opacity="1" fill-rule="nonzero"/><g clip-path="url(#2e34e0d078)"><path fill="#57bda9" d="M 171.609375 15.625 C 171.609375 15.625 137.667969 90.011719 191.882812 134.65625 C 196.03125 138.070312 201.992188 138.160156 206.203125 134.828125 C 211.503906 130.636719 212.011719 122.765625 207.265625 117.957031 C 193.0625 103.570312 168.449219 70.417969 171.609375 15.625 " fill-opacity="1" fill-rule="nonzero"/></g><path fill="#51ade5" d="M 211.523438 143.085938 C 210.640625 148.382812 213.542969 153.585938 218.539062 155.566406 C 224.820312 158.058594 231.894531 154.5625 233.683594 148.050781 C 239.050781 128.566406 255.464844 90.679688 304.523438 66.019531 C 304.523438 66.019531 223.097656 73.832031 211.523438 143.085938 " fill-opacity="1" fill-rule="nonzero"/><path fill="#57bda9" d="M 223.480469 47.316406 C 212.007812 44.90625 200.75 52.25 198.335938 63.71875 C 195.925781 75.1875 203.273438 86.4375 214.746094 88.851562 C 226.222656 91.261719 237.480469 83.917969 239.890625 72.449219 C 242.304688 60.980469 234.957031 49.726562 223.480469 47.316406 " fill-opacity="1" fill-rule="nonzero"/><g fill="#ff8210" fill-opacity="1"><g transform="translate(115.415555, 341.126641)"><g><path d="M 18.171875 0 L 10.203125 -25.953125 L 10 -25.953125 C 10.28125 -20.671875 10.421875 -17.144531 10.421875 -15.375 L 10.421875 0 L 4.15625 0 L 4.15625 -33.078125 L 13.703125 -33.078125 L 21.53125 -7.78125 L 21.671875 -7.78125 L 29.96875 -33.078125 L 39.515625 -33.078125 L 39.515625 0 L 32.984375 0 L 32.984375 -15.65625 C 32.984375 -16.394531 32.992188 -17.242188 33.015625 -18.203125 C 33.035156 -19.171875 33.140625 -21.738281 33.328125 -25.90625 L 33.125 -25.90625 L 24.59375 0 Z M 18.171875 0 "/></g></g></g><g fill="#ff8210" fill-opacity="1"><g transform="translate(164.432112, 341.126641)"><g><path d="M 24.40625 0 L 22.015625 -7.875 L 9.953125 -7.875 L 7.5625 0 L 0 0 L 11.671875 -33.203125 L 20.25 -33.203125 L 31.96875 0 Z M 20.34375 -13.75 C 18.125 -20.882812 16.875 -24.921875 16.59375 -25.859375 C 16.3125 -26.796875 16.113281 -27.535156 16 -28.078125 C 15.5 -26.140625 14.070312 -21.363281 11.71875 -13.75 Z M 20.34375 -13.75 "/></g></g></g><g fill="#ff8210" fill-opacity="1"><g transform="translate(201.729286, 341.126641)"><g><path d="M 11.171875 -18.390625 L 13.4375 -18.390625 C 15.65625 -18.390625 17.289062 -18.757812 18.34375 -19.5 C 19.394531 -20.238281 19.921875 -21.398438 19.921875 -22.984375 C 19.921875 -24.546875 19.378906 -25.660156 18.296875 -26.328125 C 17.222656 -26.992188 15.554688 -27.328125 13.296875 -27.328125 L 11.171875 -27.328125 Z M 11.171875 -12.6875 L 11.171875 0 L 4.15625 0 L 4.15625 -33.078125 L 13.796875 -33.078125 C 18.296875 -33.078125 21.625 -32.253906 23.78125 -30.609375 C 25.9375 -28.972656 27.015625 -26.492188 27.015625 -23.171875 C 27.015625 -21.222656 26.476562 -19.488281 25.40625 -17.96875 C 24.332031 -16.457031 22.816406 -15.269531 20.859375 -14.40625 C 25.835938 -6.96875 29.078125 -2.164062 30.578125 0 L 22.796875 0 L 14.90625 -12.6875 Z M 11.171875 -12.6875 "/></g></g></g><g fill="#ff8210" fill-opacity="1"><g transform="translate(237.646366, 341.126641)"><g><path d="M 24.40625 0 L 22.015625 -7.875 L 9.953125 -7.875 L 7.5625 0 L 0 0 L 11.671875 -33.203125 L 20.25 -33.203125 L 31.96875 0 Z M 20.34375 -13.75 C 18.125 -20.882812 16.875 -24.921875 16.59375 -25.859375 C 16.3125 -26.796875 16.113281 -27.535156 16 -28.078125 C 15.5 -26.140625 14.070312 -21.363281 11.71875 -13.75 Z M 20.34375 -13.75 "/></g></g></g><g fill="#ff8210" fill-opacity="1"><g transform="translate(150.418251, 366.203337)"><g><path d="M 7 0 L 4.09375 0 L 4.09375 -11.265625 L 0.390625 -11.265625 L 0.390625 -13.671875 L 10.703125 -13.671875 L 10.703125 -11.265625 L 7 -11.265625 Z M 7 0 "/></g></g></g><g fill="#ff8210" fill-opacity="1"><g transform="translate(167.589758, 366.203337)"><g><path d="M 4.625 -7.609375 L 5.5625 -7.609375 C 6.476562 -7.609375 7.148438 -7.757812 7.578125 -8.0625 C 8.015625 -8.363281 8.234375 -8.84375 8.234375 -9.5 C 8.234375 -10.144531 8.007812 -10.601562 7.5625 -10.875 C 7.125 -11.15625 6.4375 -11.296875 5.5 -11.296875 L 4.625 -11.296875 Z M 4.625 -5.25 L 4.625 0 L 1.71875 0 L 1.71875 -13.671875 L 5.703125 -13.671875 C 7.566406 -13.671875 8.941406 -13.332031 9.828125 -12.65625 C 10.722656 -11.976562 11.171875 -10.953125 11.171875 -9.578125 C 11.171875 -8.773438 10.945312 -8.054688 10.5 -7.421875 C 10.0625 -6.796875 9.4375 -6.304688 8.625 -5.953125 C 10.675781 -2.878906 12.015625 -0.894531 12.640625 0 L 9.421875 0 L 6.15625 -5.25 Z M 4.625 -5.25 "/></g></g></g><g fill="#ff8210" fill-opacity="1"><g transform="translate(186.314116, 366.203337)"><g><path d="M 12.859375 -13.671875 L 12.859375 -4.828125 C 12.859375 -3.816406 12.628906 -2.929688 12.171875 -2.171875 C 11.722656 -1.410156 11.070312 -0.828125 10.21875 -0.421875 C 9.363281 -0.015625 8.351562 0.1875 7.1875 0.1875 C 5.425781 0.1875 4.054688 -0.257812 3.078125 -1.15625 C 2.109375 -2.0625 1.625 -3.296875 1.625 -4.859375 L 1.625 -13.671875 L 4.515625 -13.671875 L 4.515625 -5.296875 C 4.515625 -4.242188 4.726562 -3.472656 5.15625 -2.984375 C 5.582031 -2.492188 6.285156 -2.25 7.265625 -2.25 C 8.210938 -2.25 8.898438 -2.492188 9.328125 -2.984375 C 9.753906 -3.484375 9.96875 -4.265625 9.96875 -5.328125 L 9.96875 -13.671875 Z M 12.859375 -13.671875 "/></g></g></g><g fill="#ff8210" fill-opacity="1"><g transform="translate(206.871962, 366.203337)"><g><path d="M 9.796875 -3.796875 C 9.796875 -2.566406 9.347656 -1.59375 8.453125 -0.875 C 7.566406 -0.164062 6.332031 0.1875 4.75 0.1875 C 3.289062 0.1875 2 -0.0859375 0.875 -0.640625 L 0.875 -3.328125 C 1.800781 -2.921875 2.582031 -2.628906 3.21875 -2.453125 C 3.863281 -2.285156 4.445312 -2.203125 4.96875 -2.203125 C 5.613281 -2.203125 6.101562 -2.320312 6.4375 -2.5625 C 6.78125 -2.8125 6.953125 -3.175781 6.953125 -3.65625 C 6.953125 -3.925781 6.875 -4.164062 6.71875 -4.375 C 6.570312 -4.582031 6.351562 -4.78125 6.0625 -4.96875 C 5.769531 -5.164062 5.179688 -5.476562 4.296875 -5.90625 C 3.460938 -6.289062 2.832031 -6.664062 2.40625 -7.03125 C 1.988281 -7.394531 1.65625 -7.816406 1.40625 -8.296875 C 1.15625 -8.773438 1.03125 -9.335938 1.03125 -9.984375 C 1.03125 -11.191406 1.441406 -12.140625 2.265625 -12.828125 C 3.085938 -13.523438 4.222656 -13.875 5.671875 -13.875 C 6.378906 -13.875 7.054688 -13.785156 7.703125 -13.609375 C 8.347656 -13.441406 9.023438 -13.207031 9.734375 -12.90625 L 8.796875 -10.65625 C 8.066406 -10.957031 7.460938 -11.164062 6.984375 -11.28125 C 6.503906 -11.394531 6.035156 -11.453125 5.578125 -11.453125 C 5.023438 -11.453125 4.601562 -11.320312 4.3125 -11.0625 C 4.019531 -10.8125 3.875 -10.484375 3.875 -10.078125 C 3.875 -9.816406 3.929688 -9.59375 4.046875 -9.40625 C 4.171875 -9.21875 4.359375 -9.035156 4.609375 -8.859375 C 4.867188 -8.679688 5.484375 -8.359375 6.453125 -7.890625 C 7.734375 -7.285156 8.609375 -6.675781 9.078125 -6.0625 C 9.554688 -5.445312 9.796875 -4.691406 9.796875 -3.796875 Z M 9.796875 -3.796875 "/></g></g></g><g fill="#ff8210" fill-opacity="1"><g transform="translate(223.500907, 366.203337)"><g><path d="M 7 0 L 4.09375 0 L 4.09375 -11.265625 L 0.390625 -11.265625 L 0.390625 -13.671875 L 10.703125 -13.671875 L 10.703125 -11.265625 L 7 -11.265625 Z M 7 0 "/></g></g></g></svg>