<svg xmlns="http://www.w3.org/2000/svg" xmlns:xlink="http://www.w3.org/1999/xlink" width="500" zoomAndPan="magnify" viewBox="0 0 375 374.999991" height="500" preserveAspectRatio="xMidYMid meet" version="1.0"><defs><g/><clipPath id="9731c84014"><path d="M 198 164 L 318.902344 164 L 318.902344 212 L 198 212 Z M 198 164 " clip-rule="nonzero"/></clipPath><clipPath id="70a15bc00f"><path d="M 170 180 L 220 180 L 220 301.417969 L 170 301.417969 Z M 170 180 " clip-rule="nonzero"/></clipPath><clipPath id="6dc901f3bb"><path d="M 54.152344 111 L 175 111 L 175 159 L 54.152344 159 Z M 54.152344 111 " clip-rule="nonzero"/></clipPath><clipPath id="a187b356c8"><path d="M 153 21.667969 L 203 21.667969 L 203 143 L 153 143 Z M 153 21.667969 " clip-rule="nonzero"/></clipPath></defs><rect x="-37.5" width="450" fill="#ffffff" y="-37.499999" height="449.999989" fill-opacity="1"/><rect x="-37.5" width="450" fill="#ffffff" y="-37.499999" height="449.999989" fill-opacity="1"/><rect x="-37.5" width="450" fill="#ffffff" y="-37.499999" height="449.999989" fill-opacity="1"/><g clip-path="url(#9731c84014)"><path fill="#ed166d" d="M 318.691406 211.804688 C 318.691406 211.804688 271.480469 145.40625 206.058594 169.949219 C 201.054688 171.828125 198.019531 176.929688 198.792969 182.226562 C 199.769531 188.890625 206.296875 193.257812 212.796875 191.554688 C 232.253906 186.46875 273.054688 181.75 318.691406 211.804688 " fill-opacity="1" fill-rule="nonzero"/></g><path fill="#51ade5" d="M 294.515625 132.515625 C 298.140625 143.621094 292.101562 155.578125 281.019531 159.210938 C 269.9375 162.851562 258.015625 156.792969 254.386719 145.683594 C 250.757812 134.578125 256.800781 122.625 267.882812 118.984375 C 278.964844 115.347656 290.886719 121.40625 294.515625 132.515625 " fill-opacity="1" fill-rule="nonzero"/><g clip-path="url(#70a15bc00f)"><path fill="#7b167d" d="M 209.1875 301.417969 C 209.1875 301.417969 242.941406 227.230469 189.03125 182.703125 C 184.90625 179.296875 178.980469 179.210938 174.789062 182.535156 C 169.519531 186.710938 169.015625 194.5625 173.734375 199.359375 C 187.855469 213.707031 212.332031 246.769531 209.1875 301.417969 " fill-opacity="1" fill-rule="nonzero"/></g><path fill="#ed166d" d="M 265.59375 240.78125 C 257.816406 249.484375 244.464844 250.21875 235.785156 242.414062 C 227.101562 234.613281 226.371094 221.234375 234.15625 212.527344 C 241.9375 203.824219 255.285156 203.09375 263.964844 210.894531 C 272.648438 218.699219 273.378906 232.078125 265.59375 240.78125 " fill-opacity="1" fill-rule="nonzero"/><path fill="#80cc28" d="M 77.023438 251.15625 C 77.023438 251.15625 157.992188 243.363281 169.5 174.296875 C 170.375 169.011719 167.492188 163.824219 162.523438 161.847656 C 156.277344 159.363281 149.246094 162.851562 147.464844 169.34375 C 142.128906 188.777344 125.804688 226.5625 77.023438 251.15625 " fill-opacity="1" fill-rule="nonzero"/><path fill="#7b167d" d="M 157.609375 269.808594 C 146.199219 267.40625 138.890625 256.183594 141.292969 244.742188 C 143.691406 233.304688 154.882812 225.980469 166.296875 228.386719 C 177.703125 230.792969 185.011719 242.011719 182.613281 253.449219 C 180.210938 264.890625 169.019531 272.210938 157.609375 269.808594 " fill-opacity="1" fill-rule="nonzero"/><g clip-path="url(#6dc901f3bb)"><path fill="#f68c11" d="M 54.363281 111.28125 C 54.363281 111.28125 101.574219 177.679688 166.992188 153.132812 C 171.996094 151.257812 175.035156 146.15625 174.261719 140.855469 C 173.285156 134.191406 166.757812 129.824219 160.253906 131.527344 C 140.796875 136.613281 100 141.335938 54.363281 111.28125 " fill-opacity="1" fill-rule="nonzero"/></g><path fill="#80cc28" d="M 78.539062 190.566406 C 74.914062 179.460938 80.953125 167.507812 92.035156 163.871094 C 103.117188 160.234375 115.039062 166.289062 118.667969 177.398438 C 122.292969 188.507812 116.253906 200.460938 105.171875 204.097656 C 94.089844 207.734375 82.167969 201.675781 78.539062 190.566406 " fill-opacity="1" fill-rule="nonzero"/><path fill="#f68c11" d="M 107.457031 82.300781 C 115.238281 73.597656 128.589844 72.867188 137.269531 80.667969 C 145.953125 88.46875 146.679688 101.851562 138.898438 110.554688 C 131.117188 119.257812 117.769531 119.992188 109.089844 112.1875 C 100.40625 104.386719 99.675781 91.007812 107.457031 82.300781 " fill-opacity="1" fill-rule="nonzero"/><g clip-path="url(#a187b356c8)"><path fill="#57bda9" d="M 163.863281 21.667969 C 163.863281 21.667969 130.113281 95.855469 184.023438 140.378906 C 188.148438 143.785156 194.074219 143.875 198.261719 140.550781 C 203.535156 136.371094 204.039062 128.519531 199.320312 123.726562 C 185.195312 109.378906 160.722656 76.3125 163.863281 21.667969 " fill-opacity="1" fill-rule="nonzero"/></g><path fill="#51ade5" d="M 203.554688 148.789062 C 202.675781 154.070312 205.5625 159.261719 210.53125 161.234375 C 216.777344 163.722656 223.808594 160.234375 225.589844 153.738281 C 230.925781 134.308594 247.246094 96.523438 296.027344 71.929688 C 296.027344 71.929688 215.0625 79.71875 203.554688 148.789062 " fill-opacity="1" fill-rule="nonzero"/><path fill="#57bda9" d="M 215.445312 53.273438 C 204.035156 50.871094 192.839844 58.191406 190.441406 69.632812 C 188.042969 81.070312 195.347656 92.292969 206.757812 94.699219 C 218.167969 97.101562 229.363281 89.777344 231.761719 78.339844 C 234.160156 66.902344 226.855469 55.679688 215.445312 53.273438 " fill-opacity="1" fill-rule="nonzero"/><g fill="#ff8210" fill-opacity="1"><g transform="translate(115.731043, 345.052003)"><g><path d="M 18.234375 0 L 10.25 -26.046875 L 10.03125 -26.046875 C 10.320312 -20.753906 10.46875 -17.21875 10.46875 -15.4375 L 10.46875 0 L 4.171875 0 L 4.171875 -33.203125 L 13.765625 -33.203125 L 21.625 -7.8125 L 21.765625 -7.8125 L 30.09375 -33.203125 L 39.671875 -33.203125 L 39.671875 0 L 33.109375 0 L 33.109375 -15.71875 C 33.109375 -16.457031 33.117188 -17.3125 33.140625 -18.28125 C 33.171875 -19.25 33.273438 -21.820312 33.453125 -26 L 33.25 -26 L 24.6875 0 Z M 18.234375 0 "/></g></g></g><g fill="#ff8210" fill-opacity="1"><g transform="translate(164.93696, 345.052003)"><g><path d="M 24.5 0 L 22.09375 -7.90625 L 10 -7.90625 L 7.59375 0 L 0 0 L 11.71875 -33.34375 L 20.328125 -33.34375 L 32.09375 0 Z M 20.421875 -13.8125 C 18.191406 -20.96875 16.9375 -25.015625 16.65625 -25.953125 C 16.375 -26.898438 16.175781 -27.644531 16.0625 -28.1875 C 15.5625 -26.25 14.128906 -21.457031 11.765625 -13.8125 Z M 20.421875 -13.8125 "/></g></g></g><g fill="#ff8210" fill-opacity="1"><g transform="translate(202.378311, 345.052003)"><g><path d="M 11.21875 -18.46875 L 13.484375 -18.46875 C 15.710938 -18.46875 17.359375 -18.835938 18.421875 -19.578125 C 19.484375 -20.316406 20.015625 -21.484375 20.015625 -23.078125 C 20.015625 -24.648438 19.472656 -25.769531 18.390625 -26.4375 C 17.304688 -27.101562 15.628906 -27.4375 13.359375 -27.4375 L 11.21875 -27.4375 Z M 11.21875 -12.734375 L 11.21875 0 L 4.171875 0 L 4.171875 -33.203125 L 13.859375 -33.203125 C 18.367188 -33.203125 21.707031 -32.378906 23.875 -30.734375 C 26.039062 -29.097656 27.125 -26.609375 27.125 -23.265625 C 27.125 -21.304688 26.582031 -19.566406 25.5 -18.046875 C 24.425781 -16.523438 22.90625 -15.332031 20.9375 -14.46875 C 25.9375 -7 29.191406 -2.175781 30.703125 0 L 22.890625 0 L 14.96875 -12.734375 Z M 11.21875 -12.734375 "/></g></g></g><g fill="#ff8210" fill-opacity="1"><g transform="translate(238.434247, 345.052003)"><g><path d="M 24.5 0 L 22.09375 -7.90625 L 10 -7.90625 L 7.59375 0 L 0 0 L 11.71875 -33.34375 L 20.328125 -33.34375 L 32.09375 0 Z M 20.421875 -13.8125 C 18.191406 -20.96875 16.9375 -25.015625 16.65625 -25.953125 C 16.375 -26.898438 16.175781 -27.644531 16.0625 -28.1875 C 15.5625 -26.25 14.128906 -21.457031 11.765625 -13.8125 Z M 20.421875 -13.8125 "/></g></g></g><g fill="#ff8210" fill-opacity="1"><g transform="translate(150.861579, 370.622371)"><g><path d="M 7.03125 0 L 4.109375 0 L 4.109375 -11.3125 L 0.390625 -11.3125 L 0.390625 -13.734375 L 10.75 -13.734375 L 10.75 -11.3125 L 7.03125 -11.3125 Z M 7.03125 0 "/></g></g></g><g fill="#ff8210" fill-opacity="1"><g transform="translate(168.100502, 370.622371)"><g><path d="M 4.640625 -7.640625 L 5.578125 -7.640625 C 6.492188 -7.640625 7.171875 -7.789062 7.609375 -8.09375 C 8.054688 -8.40625 8.28125 -8.890625 8.28125 -9.546875 C 8.28125 -10.191406 8.054688 -10.648438 7.609375 -10.921875 C 7.160156 -11.203125 6.460938 -11.34375 5.515625 -11.34375 L 4.640625 -11.34375 Z M 4.640625 -5.265625 L 4.640625 0 L 1.734375 0 L 1.734375 -13.734375 L 5.734375 -13.734375 C 7.597656 -13.734375 8.976562 -13.390625 9.875 -12.703125 C 10.769531 -12.023438 11.21875 -11 11.21875 -9.625 C 11.21875 -8.8125 10.992188 -8.085938 10.546875 -7.453125 C 10.097656 -6.828125 9.46875 -6.335938 8.65625 -5.984375 C 10.726562 -2.898438 12.078125 -0.90625 12.703125 0 L 9.46875 0 L 6.1875 -5.265625 Z M 4.640625 -5.265625 "/></g></g></g><g fill="#ff8210" fill-opacity="1"><g transform="translate(186.898374, 370.622371)"><g><path d="M 12.90625 -13.734375 L 12.90625 -4.84375 C 12.90625 -3.832031 12.675781 -2.941406 12.21875 -2.171875 C 11.769531 -1.410156 11.113281 -0.828125 10.25 -0.421875 C 9.394531 -0.015625 8.382812 0.1875 7.21875 0.1875 C 5.445312 0.1875 4.070312 -0.265625 3.09375 -1.171875 C 2.125 -2.078125 1.640625 -3.316406 1.640625 -4.890625 L 1.640625 -13.734375 L 4.53125 -13.734375 L 4.53125 -5.328125 C 4.53125 -4.265625 4.742188 -3.484375 5.171875 -2.984375 C 5.597656 -2.492188 6.300781 -2.25 7.28125 -2.25 C 8.238281 -2.25 8.929688 -2.5 9.359375 -3 C 9.785156 -3.5 10 -4.28125 10 -5.34375 L 10 -13.734375 Z M 12.90625 -13.734375 "/></g></g></g><g fill="#ff8210" fill-opacity="1"><g transform="translate(207.536933, 370.622371)"><g><path d="M 9.828125 -3.8125 C 9.828125 -2.570312 9.378906 -1.59375 8.484375 -0.875 C 7.597656 -0.164062 6.359375 0.1875 4.765625 0.1875 C 3.304688 0.1875 2.015625 -0.0859375 0.890625 -0.640625 L 0.890625 -3.34375 C 1.804688 -2.925781 2.585938 -2.632812 3.234375 -2.46875 C 3.878906 -2.300781 4.46875 -2.21875 5 -2.21875 C 5.632812 -2.21875 6.125 -2.335938 6.46875 -2.578125 C 6.8125 -2.828125 6.984375 -3.191406 6.984375 -3.671875 C 6.984375 -3.941406 6.90625 -4.179688 6.75 -4.390625 C 6.601562 -4.597656 6.382812 -4.796875 6.09375 -4.984375 C 5.800781 -5.179688 5.207031 -5.492188 4.3125 -5.921875 C 3.46875 -6.316406 2.835938 -6.695312 2.421875 -7.0625 C 2.003906 -7.425781 1.671875 -7.847656 1.421875 -8.328125 C 1.171875 -8.804688 1.046875 -9.367188 1.046875 -10.015625 C 1.046875 -11.234375 1.457031 -12.1875 2.28125 -12.875 C 3.101562 -13.570312 4.238281 -13.921875 5.6875 -13.921875 C 6.40625 -13.921875 7.085938 -13.835938 7.734375 -13.671875 C 8.378906 -13.503906 9.054688 -13.265625 9.765625 -12.953125 L 8.828125 -10.703125 C 8.097656 -10.992188 7.492188 -11.195312 7.015625 -11.3125 C 6.535156 -11.4375 6.0625 -11.5 5.59375 -11.5 C 5.039062 -11.5 4.617188 -11.367188 4.328125 -11.109375 C 4.035156 -10.859375 3.890625 -10.523438 3.890625 -10.109375 C 3.890625 -9.859375 3.945312 -9.632812 4.0625 -9.4375 C 4.1875 -9.25 4.378906 -9.066406 4.640625 -8.890625 C 4.898438 -8.710938 5.515625 -8.390625 6.484375 -7.921875 C 7.765625 -7.304688 8.640625 -6.691406 9.109375 -6.078125 C 9.585938 -5.460938 9.828125 -4.707031 9.828125 -3.8125 Z M 9.828125 -3.8125 "/></g></g></g><g fill="#ff8210" fill-opacity="1"><g transform="translate(224.231164, 370.622371)"><g><path d="M 7.03125 0 L 4.109375 0 L 4.109375 -11.3125 L 0.390625 -11.3125 L 0.390625 -13.734375 L 10.75 -13.734375 L 10.75 -11.3125 L 7.03125 -11.3125 Z M 7.03125 0 "/></g></g></g></svg>