<svg xmlns="http://www.w3.org/2000/svg" xmlns:xlink="http://www.w3.org/1999/xlink" width="500" zoomAndPan="magnify" viewBox="0 0 375 374.999991" height="500" preserveAspectRatio="xMidYMid meet" version="1.0"><defs><g/><clipPath id="3a931d91db"><path d="M 191 164 L 234.703125 164 L 234.703125 182 L 191 182 Z M 191 164 " clip-rule="nonzero"/></clipPath><clipPath id="bad0760c6b"><path d="M 181 170 L 200 170 L 200 213.71875 L 181 213.71875 Z M 181 170 " clip-rule="nonzero"/></clipPath><clipPath id="68872d2561"><path d="M 140.203125 145 L 184 145 L 184 163 L 140.203125 163 Z M 140.203125 145 " clip-rule="nonzero"/></clipPath><clipPath id="4136bffc94"><path d="M 175 113.96875 L 194 113.96875 L 194 158 L 175 158 Z M 175 113.96875 " clip-rule="nonzero"/></clipPath></defs><rect x="-37.5" width="450" fill="#ffffff" y="-37.499999" height="449.999989" fill-opacity="1"/><rect x="-37.5" width="450" fill="#082244" y="-37.499999" height="449.999989" fill-opacity="1"/><g clip-path="url(#3a931d91db)"><path fill="#ed166d" d="M 234.628906 181.765625 C 234.628906 181.765625 217.777344 158.089844 194.425781 166.839844 C 192.640625 167.511719 191.554688 169.328125 191.832031 171.21875 C 192.179688 173.59375 194.511719 175.152344 196.832031 174.542969 C 203.777344 172.730469 218.339844 171.046875 234.628906 181.765625 " fill-opacity="1" fill-rule="nonzero"/></g><path fill="#51ade5" d="M 226 153.492188 C 227.292969 157.453125 225.136719 161.714844 221.183594 163.011719 C 217.226562 164.308594 212.972656 162.148438 211.675781 158.1875 C 210.382812 154.226562 212.539062 149.964844 216.492188 148.667969 C 220.449219 147.371094 224.703125 149.53125 226 153.492188 " fill-opacity="1" fill-rule="nonzero"/><g clip-path="url(#bad0760c6b)"><path fill="#7b167d" d="M 195.542969 213.71875 C 195.542969 213.71875 207.589844 187.265625 188.347656 171.386719 C 186.875 170.171875 184.761719 170.140625 183.265625 171.328125 C 181.382812 172.816406 181.203125 175.617188 182.886719 177.328125 C 187.929688 182.441406 196.664062 194.230469 195.542969 213.71875 " fill-opacity="1" fill-rule="nonzero"/></g><path fill="#ed166d" d="M 215.675781 192.097656 C 212.898438 195.199219 208.136719 195.460938 205.035156 192.679688 C 201.9375 189.898438 201.675781 185.125 204.457031 182.023438 C 207.234375 178.917969 211.996094 178.660156 215.097656 181.441406 C 218.195312 184.222656 218.457031 188.992188 215.675781 192.097656 " fill-opacity="1" fill-rule="nonzero"/><path fill="#80cc28" d="M 148.371094 195.796875 C 148.371094 195.796875 177.269531 193.019531 181.375 168.390625 C 181.691406 166.507812 180.660156 164.65625 178.886719 163.953125 C 176.65625 163.066406 174.148438 164.308594 173.511719 166.625 C 171.605469 173.554688 165.78125 187.027344 148.371094 195.796875 " fill-opacity="1" fill-rule="nonzero"/><path fill="#7b167d" d="M 177.132812 202.445312 C 173.058594 201.589844 170.453125 197.589844 171.308594 193.507812 C 172.164062 189.429688 176.160156 186.820312 180.234375 187.675781 C 184.304688 188.535156 186.914062 192.535156 186.058594 196.613281 C 185.199219 200.695312 181.207031 203.304688 177.132812 202.445312 " fill-opacity="1" fill-rule="nonzero"/><g clip-path="url(#68872d2561)"><path fill="#f68c11" d="M 140.28125 145.921875 C 140.28125 145.921875 157.132812 169.597656 180.484375 160.84375 C 182.269531 160.175781 183.351562 158.355469 183.078125 156.464844 C 182.726562 154.089844 180.398438 152.535156 178.078125 153.140625 C 171.132812 154.953125 156.570312 156.636719 140.28125 145.921875 " fill-opacity="1" fill-rule="nonzero"/></g><path fill="#80cc28" d="M 148.910156 174.191406 C 147.617188 170.230469 149.769531 165.96875 153.726562 164.671875 C 157.683594 163.375 161.9375 165.535156 163.234375 169.496094 C 164.527344 173.457031 162.371094 177.71875 158.414062 179.015625 C 154.460938 180.3125 150.203125 178.152344 148.910156 174.191406 " fill-opacity="1" fill-rule="nonzero"/><path fill="#f68c11" d="M 159.230469 135.589844 C 162.007812 132.484375 166.773438 132.222656 169.871094 135.003906 C 172.972656 137.789062 173.230469 142.558594 170.453125 145.664062 C 167.675781 148.765625 162.914062 149.027344 159.8125 146.246094 C 156.714844 143.460938 156.453125 138.691406 159.230469 135.589844 " fill-opacity="1" fill-rule="nonzero"/><g clip-path="url(#4136bffc94)"><path fill="#57bda9" d="M 179.367188 113.96875 C 179.367188 113.96875 167.316406 140.421875 186.5625 156.296875 C 188.035156 157.511719 190.148438 157.542969 191.644531 156.359375 C 193.527344 154.867188 193.707031 152.066406 192.019531 150.359375 C 186.980469 145.242188 178.242188 133.453125 179.367188 113.96875 " fill-opacity="1" fill-rule="nonzero"/></g><path fill="#51ade5" d="M 193.53125 159.296875 C 193.21875 161.179688 194.25 163.027344 196.023438 163.734375 C 198.253906 164.621094 200.761719 163.375 201.398438 161.058594 C 203.300781 154.132812 209.128906 140.660156 226.539062 131.890625 C 226.539062 131.890625 197.640625 134.667969 193.53125 159.296875 " fill-opacity="1" fill-rule="nonzero"/><path fill="#57bda9" d="M 197.777344 125.238281 C 193.703125 124.382812 189.707031 126.992188 188.851562 131.070312 C 187.996094 135.148438 190.605469 139.148438 194.675781 140.007812 C 198.75 140.867188 202.746094 138.253906 203.601562 134.175781 C 204.457031 130.097656 201.851562 126.09375 197.777344 125.238281 " fill-opacity="1" fill-rule="nonzero"/><g fill="#ff8210" fill-opacity="1"><g transform="translate(137.133225, 242.890237)"><g><path d="M 11.859375 0 L 6.671875 -16.953125 L 6.53125 -16.953125 C 6.71875 -13.503906 6.8125 -11.203125 6.8125 -10.046875 L 6.8125 0 L 2.71875 0 L 2.71875 -21.609375 L 8.953125 -21.609375 L 14.0625 -5.078125 L 14.15625 -5.078125 L 19.578125 -21.609375 L 25.8125 -21.609375 L 25.8125 0 L 21.546875 0 L 21.546875 -10.21875 C 21.546875 -10.707031 21.550781 -11.265625 21.5625 -11.890625 C 21.582031 -12.523438 21.648438 -14.203125 21.765625 -16.921875 L 21.640625 -16.921875 L 16.0625 0 Z M 11.859375 0 "/></g></g></g><g fill="#ff8210" fill-opacity="1"><g transform="translate(169.154864, 242.890237)"><g><path d="M 15.953125 0 L 14.375 -5.140625 L 6.5 -5.140625 L 4.9375 0 L 0 0 L 7.625 -21.6875 L 13.21875 -21.6875 L 20.875 0 Z M 13.28125 -8.984375 C 11.832031 -13.640625 11.015625 -16.273438 10.828125 -16.890625 C 10.648438 -17.503906 10.523438 -17.988281 10.453125 -18.34375 C 10.117188 -17.082031 9.1875 -13.960938 7.65625 -8.984375 Z M 13.28125 -8.984375 "/></g></g></g><g fill="#ff8210" fill-opacity="1"><g transform="translate(193.520441, 242.890237)"><g><path d="M 7.296875 -12.015625 L 8.78125 -12.015625 C 10.226562 -12.015625 11.296875 -12.253906 11.984375 -12.734375 C 12.671875 -13.222656 13.015625 -13.984375 13.015625 -15.015625 C 13.015625 -16.035156 12.660156 -16.765625 11.953125 -17.203125 C 11.253906 -17.640625 10.164062 -17.859375 8.6875 -17.859375 L 7.296875 -17.859375 Z M 7.296875 -8.296875 L 7.296875 0 L 2.71875 0 L 2.71875 -21.609375 L 9.015625 -21.609375 C 11.953125 -21.609375 14.125 -21.070312 15.53125 -20 C 16.9375 -18.9375 17.640625 -17.316406 17.640625 -15.140625 C 17.640625 -13.859375 17.289062 -12.722656 16.59375 -11.734375 C 15.894531 -10.742188 14.90625 -9.96875 13.625 -9.40625 C 16.875 -4.550781 18.992188 -1.414062 19.984375 0 L 14.890625 0 L 9.734375 -8.296875 Z M 7.296875 -8.296875 "/></g></g></g><g fill="#ff8210" fill-opacity="1"><g transform="translate(216.984426, 242.890237)"><g><path d="M 15.953125 0 L 14.375 -5.140625 L 6.5 -5.140625 L 4.9375 0 L 0 0 L 7.625 -21.6875 L 13.21875 -21.6875 L 20.875 0 Z M 13.28125 -8.984375 C 11.832031 -13.640625 11.015625 -16.273438 10.828125 -16.890625 C 10.648438 -17.503906 10.523438 -17.988281 10.453125 -18.34375 C 10.117188 -17.082031 9.1875 -13.960938 7.65625 -8.984375 Z M 13.28125 -8.984375 "/></g></g></g><g fill="#ff8210" fill-opacity="1"><g transform="translate(159.999868, 259.272405)"><g><path d="M 4.578125 0 L 2.671875 0 L 2.671875 -7.359375 L 0.25 -7.359375 L 0.25 -8.9375 L 7 -8.9375 L 7 -7.359375 L 4.578125 -7.359375 Z M 4.578125 0 "/></g></g></g><g fill="#ff8210" fill-opacity="1"><g transform="translate(171.217706, 259.272405)"><g><path d="M 3.015625 -4.96875 L 3.625 -4.96875 C 4.226562 -4.96875 4.671875 -5.066406 4.953125 -5.265625 C 5.242188 -5.460938 5.390625 -5.773438 5.390625 -6.203125 C 5.390625 -6.628906 5.242188 -6.929688 4.953125 -7.109375 C 4.660156 -7.285156 4.207031 -7.375 3.59375 -7.375 L 3.015625 -7.375 Z M 3.015625 -3.421875 L 3.015625 0 L 1.125 0 L 1.125 -8.9375 L 3.734375 -8.9375 C 4.941406 -8.9375 5.835938 -8.710938 6.421875 -8.265625 C 7.003906 -7.828125 7.296875 -7.160156 7.296875 -6.265625 C 7.296875 -5.734375 7.148438 -5.257812 6.859375 -4.84375 C 6.566406 -4.4375 6.160156 -4.117188 5.640625 -3.890625 C 6.984375 -1.878906 7.859375 -0.582031 8.265625 0 L 6.15625 0 L 4.03125 -3.421875 Z M 3.015625 -3.421875 "/></g></g></g><g fill="#ff8210" fill-opacity="1"><g transform="translate(183.449994, 259.272405)"><g><path d="M 8.390625 -8.9375 L 8.390625 -3.15625 C 8.390625 -2.488281 8.242188 -1.90625 7.953125 -1.40625 C 7.660156 -0.914062 7.234375 -0.535156 6.671875 -0.265625 C 6.117188 -0.00390625 5.457031 0.125 4.6875 0.125 C 3.539062 0.125 2.648438 -0.164062 2.015625 -0.75 C 1.378906 -1.34375 1.0625 -2.148438 1.0625 -3.171875 L 1.0625 -8.9375 L 2.953125 -8.9375 L 2.953125 -3.46875 C 2.953125 -2.78125 3.085938 -2.273438 3.359375 -1.953125 C 3.640625 -1.628906 4.101562 -1.46875 4.75 -1.46875 C 5.363281 -1.46875 5.8125 -1.628906 6.09375 -1.953125 C 6.375 -2.273438 6.515625 -2.785156 6.515625 -3.484375 L 6.515625 -8.9375 Z M 8.390625 -8.9375 "/></g></g></g><g fill="#ff8210" fill-opacity="1"><g transform="translate(196.880067, 259.272405)"><g><path d="M 6.390625 -2.484375 C 6.390625 -1.671875 6.097656 -1.03125 5.515625 -0.5625 C 4.941406 -0.101562 4.140625 0.125 3.109375 0.125 C 2.148438 0.125 1.304688 -0.0546875 0.578125 -0.421875 L 0.578125 -2.171875 C 1.179688 -1.898438 1.691406 -1.707031 2.109375 -1.59375 C 2.523438 -1.488281 2.90625 -1.4375 3.25 -1.4375 C 3.664062 -1.4375 3.984375 -1.515625 4.203125 -1.671875 C 4.429688 -1.835938 4.546875 -2.078125 4.546875 -2.390625 C 4.546875 -2.566406 4.492188 -2.722656 4.390625 -2.859375 C 4.296875 -2.992188 4.148438 -3.125 3.953125 -3.25 C 3.765625 -3.375 3.382812 -3.578125 2.8125 -3.859375 C 2.257812 -4.109375 1.847656 -4.351562 1.578125 -4.59375 C 1.304688 -4.832031 1.085938 -5.109375 0.921875 -5.421875 C 0.753906 -5.734375 0.671875 -6.097656 0.671875 -6.515625 C 0.671875 -7.304688 0.9375 -7.925781 1.46875 -8.375 C 2.007812 -8.832031 2.753906 -9.0625 3.703125 -9.0625 C 4.171875 -9.0625 4.613281 -9.003906 5.03125 -8.890625 C 5.457031 -8.785156 5.898438 -8.632812 6.359375 -8.4375 L 5.75 -6.953125 C 5.269531 -7.148438 4.875 -7.285156 4.5625 -7.359375 C 4.25 -7.441406 3.941406 -7.484375 3.640625 -7.484375 C 3.285156 -7.484375 3.007812 -7.398438 2.8125 -7.234375 C 2.625 -7.066406 2.53125 -6.847656 2.53125 -6.578125 C 2.53125 -6.410156 2.566406 -6.265625 2.640625 -6.140625 C 2.722656 -6.015625 2.847656 -5.894531 3.015625 -5.78125 C 3.179688 -5.664062 3.582031 -5.457031 4.21875 -5.15625 C 5.050781 -4.757812 5.617188 -4.359375 5.921875 -3.953125 C 6.234375 -3.554688 6.390625 -3.066406 6.390625 -2.484375 Z M 6.390625 -2.484375 "/></g></g></g><g fill="#ff8210" fill-opacity="1"><g transform="translate(207.743459, 259.272405)"><g><path d="M 4.578125 0 L 2.671875 0 L 2.671875 -7.359375 L 0.25 -7.359375 L 0.25 -8.9375 L 7 -8.9375 L 7 -7.359375 L 4.578125 -7.359375 Z M 4.578125 0 "/></g></g></g></svg>